<?xml version="1.0" encoding="utf-8"?>
<!-- Generator: Adobe Illustrator 23.0.6, SVG Export Plug-In . SVG Version: 6.00 Build 0)  -->
<svg version="1.1" id="Layer_1" xmlns="http://www.w3.org/2000/svg" xmlns:xlink="http://www.w3.org/1999/xlink" x="0px" y="0px"
	 viewBox="0 0 159.73 52" style="enable-background:new 0 0 159.73 52;" xml:space="preserve">
<style type="text/css">
	.st0{fill-rule:evenodd;clip-rule:evenodd;fill:#034EA2;}
	.st1{fill:#034EA2;}
	.st2{fill-rule:evenodd;clip-rule:evenodd;fill:#00A651;}
</style>
<g>
	<path class="st0" d="M63.81,16.89c0.68-0.08,1.3,0.41,1.38,1.1c0.08,0.68-0.41,1.3-1.1,1.38c-0.68,0.08-1.3-0.41-1.38-1.1
		C62.63,17.59,63.12,16.97,63.81,16.89 M42.16,38.83c7.81-0.88,13.89-4.46,19.21-9.22c2.88-2.57,3.79-6.12,6.24-8.9
		c0.16-0.18,0.27-0.29,0.43-0.41c0.99-0.74,2.08-1.46,3.13-1.92c0.88-0.39,2.52-0.86,3.39-1.21c-0.19-0.4-0.24-0.6-1.47-0.53
		c-0.85,0.05-1.9,0.32-2.67-0.06c-4.31-2.07-8.65-1.21-10.8,0.83c-1.58,1.5-4.17,2.08-6.45,3.53c-4.75-6.42-13.57-14.4-20.71-18.7
		C30.17,0.85,27.9-0.46,25.4,0c-2.25,0.41-4.46,2.47-5.1,4.55c0.68-0.59,3.07-2.14,4.13-2.49c3.14-1.03,5.65,0.94,7.73,2.35
		c7.29,4.94,17.98,17.17,19.11,19.9c1.86-0.9,1.74-1.06,3.75-1.35c2.63-0.39,2.83-0.9,3.13-1.83c0.34-1.05,0.73-1.45,1.66-1.64
		c1.94-0.41,2.29,1.62,4.32,1.23c1.37-0.27,1.63-0.81,2.36-1.75c0.54-0.69,1.25-0.58,2.26-0.58c0.6,0,1.25-0.01,0.96,0.14
		c-0.62,0.31-1.57,0.42-2.36,1.02c-1.9,1.43-3.43,4.98-5.21,7.02c-4.54,5.21-13.06,10.59-19.91,11.73
		C41.58,38.39,40.38,38.85,42.16,38.83z"/>
	<path class="st0" d="M26.16,48.46c-3.49-0.94-7.26-2.29-11.43-1.52c-2.04,0.37-4.8,1.4-6.86,2.44C6.89,49.88,5.53,49.84,6.3,49
		c1.89-2.05,5.15-3.73,7.69-4.25c3.7-0.76,7.95,0.39,11.74,1.61c2.71,1.06,5.58,2.19,8.83,2.77C32.03,50.5,28.6,49.12,26.16,48.46"
		/>
	<path class="st0" d="M42.17,29.97c-1.95,2.91-3.54,4.11-5.61,5.82c-0.65,0.53-1.32,0.98-2.01,1.44c0.8,0.05,1.34-0.24,1.84-0.55
		c3.14-1.92,5.81-4.06,8.62-6.94c0.54-0.56,1.16-1.03,1.7-1.58c0.5-0.52,0.77-1.19,0.1-1.71c-0.26-0.2-0.53-0.41-0.84-0.62
		c-0.15-0.1-1.28,0.9-2.02,1.71C43.27,28.26,42.72,29.15,42.17,29.97"/>
	<path class="st0" d="M25.58,44.21c-6.04-2.22-11.36-2.24-16.48,0.19c-2.86,1.36-5.34,3.31-8.98,1.28C-0.1,45.56-0.3,45.5,0,45.26
		l0.56-0.44l2.26-1.61c5.9-4.18,13.24-4.38,19.78-1.81c7.68,2.81,15.12,4.62,20.52,4.16c4.2-0.36,7.7-1.33,10.23-3.54
		c1.83-1.6,3.52-3.33,2.22-5.79c-0.38-0.73-0.01-1.04,0.53-0.46c1.68,1.8,1.3,4.72-0.24,6.8c-2.61,3.53-7.34,5.61-12.67,5.7
		C36.79,48.39,29.82,45.76,25.58,44.21"/>
	<g>
		<path class="st1" d="M87.3,30.12c-0.43-0.37-0.89-0.64-1.37-0.83c-0.48-0.18-0.99-0.28-1.52-0.28c-1.03,0-1.86,0.33-2.51,0.99
			c-0.64,0.66-0.97,1.51-0.97,2.56c0,1.01,0.31,1.85,0.94,2.51c0.63,0.66,1.42,0.99,2.37,0.99c0.56,0,1.09-0.1,1.59-0.3
			s0.99-0.49,1.45-0.89v1.73c-0.41,0.3-0.86,0.52-1.34,0.66c-0.48,0.15-1.01,0.22-1.57,0.22c-0.72,0-1.38-0.12-1.99-0.35
			c-0.61-0.23-1.15-0.58-1.61-1.04c-0.46-0.45-0.81-0.98-1.06-1.59c-0.25-0.61-0.37-1.26-0.37-1.95s0.12-1.34,0.37-1.94
			c0.25-0.61,0.6-1.14,1.07-1.6c0.47-0.46,1-0.81,1.61-1.05c0.6-0.24,1.26-0.36,1.96-0.36c0.55,0,1.08,0.08,1.58,0.24
			s0.99,0.4,1.46,0.73L87.3,30.12z"/>
		<path class="st1" d="M88.63,34.2c0-0.45,0.08-0.87,0.25-1.26c0.17-0.4,0.41-0.75,0.73-1.06c0.31-0.3,0.67-0.54,1.08-0.7
			c0.41-0.16,0.83-0.24,1.28-0.24c0.46,0,0.89,0.08,1.29,0.24c0.41,0.16,0.77,0.4,1.09,0.72c0.32,0.31,0.57,0.67,0.73,1.06
			c0.17,0.39,0.25,0.81,0.25,1.24c0,0.45-0.08,0.87-0.25,1.26c-0.16,0.39-0.41,0.74-0.72,1.05c-0.33,0.32-0.71,0.56-1.11,0.73
			c-0.41,0.17-0.83,0.25-1.29,0.25c-0.44,0-0.87-0.08-1.27-0.25c-0.41-0.17-0.77-0.4-1.09-0.72c-0.32-0.32-0.57-0.67-0.73-1.07
			C88.72,35.06,88.63,34.65,88.63,34.2z M93.87,34.21c0-0.57-0.18-1.04-0.55-1.44c-0.36-0.39-0.81-0.59-1.34-0.59
			c-0.52,0-0.97,0.2-1.33,0.59c-0.37,0.39-0.55,0.87-0.55,1.44s0.18,1.04,0.55,1.44c0.37,0.39,0.81,0.59,1.33,0.59
			s0.97-0.2,1.33-0.59S93.87,34.78,93.87,34.21z"/>
		<path class="st1" d="M96.82,37.24v-6.09h1.31v1c0.28-0.42,0.61-0.73,0.98-0.92c0.38-0.19,0.83-0.29,1.38-0.29
			c0.45,0,0.84,0.07,1.16,0.22c0.32,0.14,0.57,0.36,0.75,0.64c0.11,0.17,0.18,0.36,0.23,0.58c0.05,0.22,0.07,0.61,0.07,1.17v3.69
			h-1.41v-3.13c0-0.8-0.1-1.33-0.29-1.6c-0.19-0.26-0.54-0.39-1.04-0.39c-0.33,0-0.62,0.06-0.87,0.18c-0.25,0.12-0.46,0.29-0.6,0.51
			c-0.1,0.14-0.17,0.33-0.21,0.56c-0.04,0.23-0.06,0.59-0.06,1.09v2.78H96.82z"/>
		<path class="st1" d="M103.85,36.13l1.16-0.63c0.09,0.3,0.24,0.54,0.48,0.69c0.23,0.16,0.53,0.24,0.89,0.24
			c0.31,0,0.56-0.07,0.74-0.22s0.27-0.34,0.27-0.59c0-0.33-0.32-0.61-0.95-0.85c-0.21-0.08-0.38-0.14-0.49-0.19
			c-0.65-0.27-1.11-0.54-1.37-0.82c-0.26-0.28-0.39-0.62-0.39-1.01c0-0.54,0.21-0.99,0.64-1.32c0.43-0.34,0.99-0.51,1.69-0.51
			c0.47,0,0.87,0.09,1.21,0.26c0.34,0.17,0.58,0.42,0.74,0.74l-0.99,0.68c-0.07-0.19-0.2-0.35-0.38-0.46
			c-0.18-0.11-0.39-0.17-0.63-0.17c-0.27,0-0.48,0.06-0.64,0.19c-0.16,0.13-0.24,0.29-0.24,0.5c0,0.32,0.36,0.61,1.08,0.87
			c0.23,0.08,0.4,0.15,0.53,0.2c0.56,0.22,0.96,0.47,1.2,0.75s0.36,0.63,0.36,1.05c0,0.61-0.22,1.08-0.66,1.43
			c-0.44,0.34-1.05,0.52-1.82,0.52c-0.59,0-1.09-0.11-1.48-0.33S104.07,36.59,103.85,36.13z"/>
		<path class="st1" d="M116.01,34.4h-4.87c0.03,0.57,0.2,1.01,0.51,1.33c0.3,0.32,0.71,0.48,1.21,0.48c0.45,0,0.82-0.09,1.12-0.28
			c0.3-0.19,0.56-0.49,0.78-0.91l1.18,0.66c-0.34,0.61-0.77,1.07-1.27,1.37c-0.5,0.3-1.1,0.45-1.78,0.45c-0.98,0-1.75-0.3-2.33-0.89
			s-0.87-1.39-0.87-2.38c0-0.96,0.3-1.74,0.9-2.35c0.6-0.61,1.37-0.92,2.3-0.92c0.98,0,1.75,0.28,2.29,0.84
			c0.55,0.56,0.82,1.35,0.82,2.36V34.4z M114.57,33.46c-0.06-0.44-0.22-0.77-0.5-1c-0.28-0.23-0.66-0.34-1.14-0.34
			c-0.46,0-0.83,0.11-1.11,0.33s-0.47,0.56-0.58,1.01H114.57z"/>
		<path class="st1" d="M118.86,32.12c0.15-0.4,0.35-0.7,0.59-0.89c0.25-0.19,0.55-0.29,0.92-0.29c0.2,0,0.39,0.02,0.58,0.07
			s0.38,0.12,0.56,0.21l-0.5,1.18c-0.12-0.08-0.25-0.15-0.39-0.19c-0.14-0.04-0.29-0.06-0.47-0.06c-0.46,0-0.79,0.19-1,0.56
			s-0.3,0.99-0.3,1.87v2.67h-1.39v-6.1h1.39V32.12z"/>
	</g>
	<g>
		<path class="st1" d="M124.97,37.6l-3.19-6.46h1.52l1.33,3.06c0.04,0.09,0.09,0.24,0.15,0.42c0.06,0.19,0.12,0.41,0.19,0.67
			c0.04-0.18,0.09-0.37,0.15-0.55c0.06-0.18,0.13-0.37,0.21-0.55l1.32-3.06h1.52L124.97,37.6z"/>
		<path class="st1" d="M134.77,37.24h-1.39v-0.79c-0.25,0.35-0.54,0.61-0.87,0.78s-0.71,0.26-1.14,0.26c-0.86,0-1.54-0.29-2.03-0.88
			c-0.5-0.59-0.74-1.39-0.74-2.42c0-0.97,0.25-1.76,0.76-2.35c0.5-0.6,1.17-0.9,1.98-0.9c0.5,0,0.92,0.1,1.27,0.31
			c0.35,0.21,0.61,0.51,0.77,0.9v-1h1.39V37.24z M133.42,34.17c0-0.63-0.15-1.12-0.44-1.47c-0.29-0.35-0.7-0.53-1.23-0.53
			c-0.53,0-0.94,0.18-1.24,0.54c-0.3,0.36-0.45,0.86-0.45,1.51c0,0.65,0.15,1.15,0.44,1.5c0.29,0.35,0.7,0.53,1.23,0.53
			c0.5,0,0.91-0.19,1.22-0.57C133.26,35.3,133.42,34.8,133.42,34.17z"/>
		<path class="st1" d="M141.25,32.88c-0.21-0.24-0.46-0.42-0.75-0.54c-0.29-0.12-0.59-0.19-0.92-0.19c-0.57,0-1.03,0.18-1.37,0.55
			s-0.51,0.86-0.51,1.46c0,0.63,0.17,1.13,0.52,1.49c0.34,0.36,0.82,0.54,1.43,0.54c0.34,0,0.64-0.06,0.91-0.19
			c0.27-0.13,0.5-0.32,0.7-0.57v1.61c-0.26,0.15-0.53,0.25-0.83,0.33c-0.29,0.07-0.6,0.11-0.93,0.11c-0.96,0-1.73-0.3-2.33-0.91
			c-0.6-0.61-0.9-1.4-0.9-2.36c0-0.98,0.31-1.77,0.93-2.37s1.44-0.9,2.44-0.9c0.32,0,0.61,0.03,0.87,0.09
			c0.27,0.06,0.51,0.16,0.75,0.29V32.88z"/>
		<path class="st1" d="M142.55,28.52c0-0.24,0.09-0.44,0.26-0.61c0.17-0.17,0.38-0.26,0.62-0.26c0.25,0,0.46,0.08,0.62,0.25
			s0.25,0.37,0.25,0.62s-0.08,0.46-0.25,0.63s-0.37,0.25-0.62,0.25c-0.24,0-0.45-0.09-0.62-0.26
			C142.64,28.96,142.55,28.76,142.55,28.52z M142.74,37.24v-6.09h1.39v6.09H142.74z"/>
		<path class="st1" d="M145.67,34.2c0-0.45,0.08-0.87,0.25-1.26c0.17-0.4,0.41-0.75,0.73-1.06c0.31-0.3,0.67-0.54,1.08-0.7
			c0.41-0.16,0.83-0.24,1.28-0.24c0.46,0,0.89,0.08,1.29,0.24c0.41,0.16,0.77,0.4,1.09,0.72c0.32,0.31,0.57,0.67,0.73,1.06
			c0.17,0.39,0.25,0.81,0.25,1.24c0,0.45-0.08,0.87-0.25,1.26c-0.16,0.39-0.41,0.74-0.72,1.05c-0.33,0.32-0.71,0.56-1.11,0.73
			c-0.41,0.17-0.83,0.25-1.29,0.25c-0.44,0-0.87-0.08-1.27-0.25c-0.41-0.17-0.77-0.4-1.09-0.72c-0.32-0.32-0.57-0.67-0.73-1.07
			C145.76,35.06,145.67,34.65,145.67,34.2z M150.91,34.21c0-0.57-0.18-1.04-0.55-1.44c-0.36-0.39-0.81-0.59-1.34-0.59
			c-0.52,0-0.97,0.2-1.33,0.59c-0.37,0.39-0.55,0.87-0.55,1.44s0.18,1.04,0.55,1.44c0.37,0.39,0.81,0.59,1.33,0.59
			s0.97-0.2,1.33-0.59S150.91,34.78,150.91,34.21z M148.12,30.22l1.22-1.75h1.45l-1.88,1.75H148.12z"/>
		<path class="st1" d="M153.86,37.24v-6.09h1.31v1c0.28-0.42,0.61-0.73,0.98-0.92c0.38-0.19,0.84-0.29,1.38-0.29
			c0.45,0,0.84,0.07,1.16,0.22c0.32,0.14,0.57,0.36,0.75,0.64c0.11,0.17,0.18,0.36,0.23,0.58s0.07,0.61,0.07,1.17v3.69h-1.41v-3.13
			c0-0.8-0.1-1.33-0.29-1.6c-0.2-0.26-0.54-0.39-1.04-0.39c-0.33,0-0.62,0.06-0.87,0.18c-0.25,0.12-0.46,0.29-0.6,0.51
			c-0.1,0.14-0.17,0.33-0.21,0.56s-0.06,0.59-0.06,1.09v2.78H153.86z"/>
	</g>
	<g>
		<path class="st1" d="M83.98,39.74h1.39v9.96h-1.39V48.9c-0.25,0.35-0.54,0.61-0.87,0.78c-0.33,0.17-0.71,0.26-1.14,0.26
			c-0.86,0-1.54-0.29-2.03-0.88c-0.49-0.59-0.74-1.4-0.74-2.42c0-0.97,0.25-1.76,0.76-2.35c0.5-0.6,1.16-0.9,1.98-0.9
			c0.5,0,0.92,0.1,1.28,0.31s0.61,0.51,0.77,0.9V39.74z M84.01,46.63c0-0.63-0.15-1.12-0.44-1.47c-0.29-0.35-0.7-0.53-1.23-0.53
			s-0.94,0.18-1.24,0.54c-0.3,0.36-0.45,0.86-0.45,1.51c0,0.65,0.15,1.15,0.44,1.5c0.29,0.35,0.7,0.53,1.23,0.53
			c0.5,0,0.91-0.19,1.23-0.57S84.01,47.26,84.01,46.63z"/>
		<path class="st1" d="M93.16,46.85h-4.87c0.03,0.57,0.2,1.01,0.51,1.33c0.3,0.32,0.71,0.48,1.21,0.48c0.45,0,0.82-0.09,1.12-0.28
			s0.56-0.49,0.78-0.91l1.17,0.66c-0.34,0.61-0.77,1.07-1.27,1.37c-0.51,0.3-1.1,0.45-1.78,0.45c-0.98,0-1.75-0.3-2.33-0.89
			c-0.58-0.6-0.87-1.39-0.87-2.38c0-0.95,0.3-1.74,0.9-2.35s1.37-0.92,2.3-0.92c0.98,0,1.75,0.28,2.29,0.84
			c0.55,0.56,0.82,1.35,0.82,2.36V46.85z M91.72,45.92c-0.06-0.44-0.22-0.77-0.5-1c-0.28-0.23-0.66-0.34-1.14-0.34
			c-0.46,0-0.83,0.11-1.1,0.33s-0.47,0.56-0.58,1.01H91.72z"/>
		<path class="st1" d="M98.72,49.69v-9.4h1.53v9.4H98.72z"/>
		<path class="st1" d="M101.63,48.59l1.16-0.63c0.09,0.3,0.24,0.54,0.48,0.69s0.53,0.24,0.89,0.24c0.31,0,0.56-0.07,0.74-0.21
			s0.27-0.34,0.27-0.59c0-0.33-0.32-0.61-0.95-0.85c-0.21-0.08-0.38-0.14-0.5-0.19c-0.65-0.27-1.11-0.54-1.36-0.82
			c-0.26-0.28-0.39-0.62-0.39-1.01c0-0.54,0.21-0.99,0.64-1.32c0.43-0.34,0.99-0.51,1.69-0.51c0.47,0,0.88,0.09,1.21,0.26
			c0.34,0.17,0.58,0.42,0.74,0.74l-0.99,0.68c-0.07-0.19-0.2-0.35-0.38-0.46s-0.39-0.17-0.63-0.17c-0.27,0-0.48,0.06-0.64,0.19
			c-0.16,0.13-0.24,0.29-0.24,0.5c0,0.32,0.36,0.61,1.08,0.87c0.23,0.08,0.4,0.15,0.53,0.2c0.56,0.22,0.96,0.47,1.21,0.75
			c0.24,0.28,0.36,0.63,0.36,1.05c0,0.61-0.22,1.08-0.66,1.43c-0.44,0.34-1.05,0.52-1.82,0.52c-0.6,0-1.09-0.11-1.48-0.33
			C102.16,49.39,101.86,49.05,101.63,48.59z"/>
		<path class="st1" d="M108,49.69v-9.96h1.39v9.96H108z"/>
		<path class="st1" d="M117.11,49.69h-1.39V48.9c-0.25,0.35-0.54,0.61-0.87,0.78c-0.33,0.17-0.71,0.26-1.14,0.26
			c-0.86,0-1.54-0.29-2.03-0.88c-0.49-0.59-0.74-1.4-0.74-2.42c0-0.97,0.25-1.76,0.76-2.35c0.5-0.6,1.16-0.9,1.98-0.9
			c0.5,0,0.92,0.1,1.28,0.31s0.61,0.51,0.77,0.9v-1h1.39V49.69z M115.76,46.63c0-0.63-0.15-1.12-0.44-1.47
			c-0.29-0.35-0.7-0.53-1.23-0.53s-0.94,0.18-1.24,0.54c-0.3,0.36-0.45,0.86-0.45,1.51c0,0.65,0.15,1.15,0.44,1.5
			c0.29,0.35,0.7,0.53,1.23,0.53c0.5,0,0.91-0.19,1.22-0.57C115.6,47.75,115.76,47.25,115.76,46.63z"/>
		<path class="st1" d="M118.34,48.59l1.16-0.63c0.09,0.3,0.24,0.54,0.48,0.69s0.53,0.24,0.89,0.24c0.31,0,0.56-0.07,0.74-0.21
			s0.27-0.34,0.27-0.59c0-0.33-0.32-0.61-0.95-0.85c-0.21-0.08-0.38-0.14-0.5-0.19c-0.65-0.27-1.11-0.54-1.36-0.82
			c-0.26-0.28-0.39-0.62-0.39-1.01c0-0.54,0.21-0.99,0.64-1.32c0.43-0.34,0.99-0.51,1.69-0.51c0.47,0,0.88,0.09,1.21,0.26
			c0.34,0.17,0.58,0.42,0.74,0.74l-0.99,0.68c-0.07-0.19-0.2-0.35-0.38-0.46s-0.39-0.17-0.63-0.17c-0.27,0-0.48,0.06-0.64,0.19
			c-0.16,0.13-0.24,0.29-0.24,0.5c0,0.32,0.36,0.61,1.08,0.87c0.23,0.08,0.4,0.15,0.53,0.2c0.56,0.22,0.96,0.47,1.21,0.75
			c0.24,0.28,0.36,0.63,0.36,1.05c0,0.61-0.22,1.08-0.66,1.43c-0.44,0.34-1.05,0.52-1.82,0.52c-0.6,0-1.09-0.11-1.48-0.33
			C118.87,49.39,118.56,49.05,118.34,48.59z"/>
	</g>
	<path class="st2" d="M18.06,27.79c1.16-0.67,2.35-0.8,3.55-0.38c0.14,0.05,0.46,0.21,0.7,0.35c0.14,0.08,0.27,0.18,0.41,0.26
		c0.54,0.32,0.82,0,0.45-0.37c-0.07-0.07-0.15-0.16-0.24-0.24c-0.3-0.25-0.93-0.78-1.09-0.89c-1.4-0.98-3.44-2.44-5.32-1.32
		c-4.6,2.75-6.76,7.52-9.99,11.52c-0.59,0.73-0.96,1.46-2.32,2.47c-0.23,0.17-0.5,0.32-0.76,0.48c0.63,0.17,1.87-0.38,2.26-0.65
		c3.2-2.23,2.34-1.75,7.22-6.54C14.58,30.89,16.05,28.96,18.06,27.79"/>
	<path class="st2" d="M44.59,24.79c-0.11-0.08-0.14-0.11-0.25-0.2c-1.95-1.53-3.75-2.8-5.19-3.86c-1.27-0.93-3.46-2.66-4.59-3.12
		c-1.52-0.62-2.76-0.37-4.1,1.1c-0.98,1.08-1.96,2.72-2.89,4.12c-1.5,2.25-2.88,5.01-4.56,6.53c-0.48,0.44-0.96,0.74-1.31,0.94
		c-0.2,0.11-0.22,0.15-0.63,0.35c-0.42,0.2-0.13,0.51,0.29,0.36c1.74-0.64,3.86-2.23,5.06-3.61c1.76-2.03,3.48-3.99,4.71-5.29
		c1.06-1.11,1.54-1.2,2.4-1c1.01,0.24,2.54,1.42,4.21,2.3C40.5,24.87,42.69,25.46,44.59,24.79"/>
</g>
</svg>
